<?xml version="1.0" encoding="utf-8"?>
<!-- Generator: Adobe Illustrator 24.3.0, SVG Export Plug-In . SVG Version: 6.00 Build 0)  -->
<svg version="1.1" id="图层_1" xmlns="http://www.w3.org/2000/svg" xmlns:xlink="http://www.w3.org/1999/xlink" x="0px" y="0px"
	 viewBox="0 0 200 200" style="enable-background:new 0 0 200 200;" xml:space="preserve">
<style type="text/css">
	.st0{fill:#DC143C;}
</style>
<path class="st0" d="M107.2,23.1l70,60c2.3,2,2.6,5.5,0.6,7.8s-5.5,2.6-7.8,0.6l-3.3-2.8v80c0,6.1-5,11.1-11.1,11.1h-33.3
	c-6.1,0-11.1-5-11.1-11.1v-33.3H88.8v33.3h-0.1c0,6.1-5,11.1-11.1,11.1H44.4c-6.1,0-11.1-5-11.1-11.1v-80L30,91.5
	c-2.3,2-5.8,1.7-7.8-0.6c-2-2.3-1.7-5.8,0.6-7.8l70-60C96.9,19.5,103,19.5,107.2,23.1L107.2,23.1z"/>
</svg>
